# xmcd
#
# Track frame offsets:
#	150
#	9675
#	19817
#	29381
#	38550
#	50867
#	61312
#	72227
#	80447
#	90202
#	101432
#	111612
#	124459
#	136659
#	148058
#	159549
#	168966
#	180286
#	189866
#	200600
#	210844
#	221358
#	231906
#	241042
#	251019
#	263221
#	271746
#
# Disc length: 3768 seconds
#
# Revision: 0
# Processed by: cddbd v1.5.2PL0 Copyright (c) Steve Scherf et al.
# Submitted via: EZCDAudioConverter 1.0.6.1
#
DISCID=700eb61b
DTITLE=Various Artist - Louisiana Swamp Blues CD B
DYEAR=2014
DGENRE=blues
TTITLE0=Lonesome Sundown - Gonna stick to you baby
TTITLE1=Guitar Jr. - The crawl
TTITLE2=Silas Hogan - You're too late baby
TTITLE3=Big Chenier - Let me hold your hand
TTITLE4=Guitar Gable w. King Karl - Cool, calm and collected
TTITLE5=Jimmy Anderson - Naggin'
TTITLE6=Juke Boy Bonner - Call me Juke Boy
TTITLE7=Charles Sheffield - It's your voodoo working
TTITLE8=Boogie Jake - Loaded down
TTITLE9=Boozoo Chavis - Bye bye catin
TTITLE10=Leroy Washington - Be kind
TTITLE11=Cookie and the Cupcakes - CLose up the back door
TTITLE12=Hop Wilson - Broke and hungry
TTITLE13=Classie Ballou - Confusion
TTITLE14=Mr Calhoun - I'm ragged and dirty
TTITLE15=Elton Anderson - Catch that train
TTITLE16=Clarence Garlow - Sound the bell
TTITLE17=Jimmy Dotson - Looking for my baby
TTITLE18=Boogie Jake - I don't know why
TTITLE19=Charles Sheffield - Rock 'n' roll train
TTITLE20=Big Walter Price - Oh Ramona
TTITLE21=Shelton Dunaway - Who would have thought it
TTITLE22=Hop Wilson s. Ivory Lee - Rockin' in the coconut top
TTITLE23=Good Rockin' Bob - Make up my mind
TTITLE24=King Charles - Won't be me
TTITLE25=Boozoo Chavis - Calcasieu zydeco blues
TTITLE26=Lonesome Sundown - Don't say a word
EXTD=
EXTT0=
EXTT1=
EXTT2=
EXTT3=
EXTT4=
EXTT5=
EXTT6=
EXTT7=
EXTT8=
EXTT9=
EXTT10=
EXTT11=
EXTT12=
EXTT13=
EXTT14=
EXTT15=
EXTT16=
EXTT17=
EXTT18=
EXTT19=
EXTT20=
EXTT21=
EXTT22=
EXTT23=
EXTT24=
EXTT25=
EXTT26=
PLAYORDER=
